<svg xmlns="http://www.w3.org/2000/svg" xmlns:xlink="http://www.w3.org/1999/xlink" width="500" zoomAndPan="magnify" viewBox="0 0 375 374.999991" height="500" preserveAspectRatio="xMidYMid meet" version="1.0"><defs><clipPath id="5ba357b4a0"><path d="M 0 256.878906 L 375 256.878906 L 375 344.675781 L 0 344.675781 Z M 0 256.878906 " clip-rule="nonzero"/></clipPath><clipPath id="f0652bee34"><path d="M 160 30.234375 L 212 30.234375 L 212 81 L 160 81 Z M 160 30.234375 " clip-rule="nonzero"/></clipPath><clipPath id="edf93720f8"><path d="M 55 82 L 320 82 L 320 84.609375 L 55 84.609375 Z M 55 82 " clip-rule="nonzero"/></clipPath><clipPath id="cec5f4821b"><path d="M 160 30.234375 L 212 30.234375 L 212 81 L 160 81 Z M 160 30.234375 " clip-rule="nonzero"/></clipPath></defs><path fill="#20665c" d="M 187.5 257.007812 C 127.601562 213.945312 79.621094 250.914062 79.621094 250.914062 C 142.585938 244.820312 187.5 289.769531 187.5 289.769531 C 187.5 289.769531 232.410156 244.820312 295.378906 250.914062 C 295.378906 250.914062 247.398438 213.945312 187.5 257.007812 " fill-opacity="1" fill-rule="nonzero"/><g clip-path="url(#5ba357b4a0)"><path fill="#20665c" d="M 352.371094 273.578125 L 346.15625 270.308594 C 346.15625 270.308594 272.441406 263.046875 229.96875 293.5 C 229.96875 293.5 263.738281 265.046875 343.632812 266.132812 C 345.859375 266.164062 315.6875 260.035156 315.6875 260.035156 L 322.1875 256.921875 C 322.1875 256.921875 228.714844 254.484375 187.5 321.921875 C 146.285156 254.484375 52.8125 256.921875 52.8125 256.921875 L 59.3125 260.035156 C 59.3125 260.035156 29.140625 266.164062 31.367188 266.132812 C 111.261719 265.046875 145.027344 293.5 145.027344 293.5 C 102.558594 263.046875 28.84375 270.308594 28.84375 270.308594 L 22.628906 273.578125 L 0 282.515625 C 75.152344 265.453125 160.464844 302.421875 167.371094 323.953125 C 174.277344 345.484375 187.5 344.671875 187.5 344.671875 C 187.5 344.671875 200.722656 345.484375 207.625 323.953125 C 214.53125 302.421875 299.84375 265.453125 375 282.515625 L 352.371094 273.578125 " fill-opacity="1" fill-rule="nonzero"/></g><path fill="#20665c" d="M 319.546875 217.316406 C 319.515625 216.136719 319.054688 205.476562 312.6875 194.5 C 307.269531 185.152344 296.726562 174.070312 276.65625 171.136719 C 270.753906 156.03125 254.359375 123.214844 221.355469 116.265625 C 213.109375 114.53125 206.8125 110.96875 202.007812 106.789062 C 190.5625 96.828125 187.660156 83.335938 187.5 82.535156 C 187.335938 83.335938 184.433594 96.828125 172.988281 106.789062 C 168.183594 110.96875 161.890625 114.53125 153.644531 116.265625 C 120.636719 123.214844 104.242188 156.03125 98.339844 171.136719 C 78.269531 174.070312 67.726562 185.152344 62.3125 194.5 C 55.945312 205.476562 55.484375 216.136719 55.453125 217.316406 L 55.453125 240.175781 L 78.214844 240.175781 L 78.214844 217.914062 C 78.28125 217 78.835938 211.015625 82.378906 205.289062 C 87.167969 197.542969 95.238281 193.585938 107.046875 193.1875 L 115.351562 192.90625 L 117.617188 184.917969 C 117.730469 184.515625 129.816406 144.542969 158.332031 138.539062 C 170.734375 135.929688 180.242188 130.660156 187.5 124.449219 C 194.757812 130.660156 204.261719 135.929688 216.664062 138.539062 C 245.179688 144.542969 257.265625 184.515625 257.382812 184.917969 L 259.648438 192.90625 L 267.949219 193.1875 C 279.761719 193.585938 287.832031 197.542969 292.621094 205.289062 C 296.160156 211.015625 296.71875 217 296.785156 217.914062 L 296.785156 240.175781 L 319.546875 240.175781 L 319.546875 217.316406 " fill-opacity="1" fill-rule="nonzero"/><g clip-path="url(#f0652bee34)"><path fill="#20665c" d="M 187.5 80.988281 C 198.191406 80.988281 207.398438 74.671875 211.609375 65.566406 C 207.035156 70.757812 200.335938 74.035156 192.875 74.035156 C 179.082031 74.035156 167.898438 62.851562 167.898438 49.058594 C 167.898438 41.59375 171.175781 34.898438 176.367188 30.324219 C 167.261719 34.53125 160.941406 43.742188 160.941406 54.433594 C 160.941406 69.101562 172.832031 80.988281 187.5 80.988281 " fill-opacity="1" fill-rule="nonzero"/></g><path fill="#20665c" d="M 187.5 37.535156 L 190.992188 48.285156 L 202.296875 48.285156 L 193.152344 54.929688 L 196.644531 65.679688 L 187.5 59.035156 L 178.355469 65.679688 L 181.847656 54.929688 L 172.703125 48.285156 L 184.007812 48.285156 L 187.5 37.535156 " fill-opacity="1" fill-rule="nonzero"/><g clip-path="url(#edf93720f8)"><path fill="#bf8a2c" d="M 319.546875 217.316406 C 319.515625 216.136719 319.054688 205.476562 312.6875 194.5 C 307.269531 185.152344 296.726562 174.070312 276.65625 171.136719 C 270.753906 156.03125 254.359375 123.214844 221.355469 116.265625 C 213.109375 114.53125 206.8125 110.96875 202.007812 106.789062 C 190.5625 96.828125 187.660156 83.335938 187.5 82.535156 C 187.335938 83.335938 184.433594 96.828125 172.988281 106.789062 C 168.183594 110.96875 161.890625 114.53125 153.644531 116.265625 C 120.636719 123.214844 104.242188 156.03125 98.339844 171.136719 C 78.269531 174.070312 67.726562 185.152344 62.3125 194.5 C 55.945312 205.476562 55.484375 216.136719 55.453125 217.316406 L 55.453125 240.175781 L 78.214844 240.175781 L 78.214844 217.914062 C 78.28125 217 78.835938 211.015625 82.378906 205.289062 C 87.167969 197.542969 95.238281 193.585938 107.046875 193.1875 L 115.351562 192.90625 L 117.617188 184.917969 C 117.730469 184.515625 129.816406 144.542969 158.332031 138.539062 C 170.734375 135.929688 180.242188 130.660156 187.5 124.449219 C 194.757812 130.660156 204.261719 135.929688 216.664062 138.539062 C 245.179688 144.542969 257.265625 184.515625 257.382812 184.917969 L 259.648438 192.90625 L 267.949219 193.1875 C 279.761719 193.585938 287.832031 197.542969 292.621094 205.289062 C 296.160156 211.015625 296.71875 217 296.785156 217.914062 L 296.785156 240.175781 L 319.546875 240.175781 L 319.546875 217.316406 " fill-opacity="1" fill-rule="nonzero"/></g><g clip-path="url(#cec5f4821b)"><path fill="#bf8a2c" d="M 187.5 80.988281 C 198.191406 80.988281 207.398438 74.671875 211.609375 65.566406 C 207.035156 70.757812 200.335938 74.035156 192.875 74.035156 C 179.082031 74.035156 167.898438 62.851562 167.898438 49.058594 C 167.898438 41.59375 171.175781 34.898438 176.367188 30.324219 C 167.261719 34.53125 160.941406 43.742188 160.941406 54.433594 C 160.941406 69.101562 172.832031 80.988281 187.5 80.988281 " fill-opacity="1" fill-rule="nonzero"/></g><path fill="#bf8a2c" d="M 187.5 37.535156 L 190.992188 48.285156 L 202.296875 48.285156 L 193.152344 54.929688 L 196.644531 65.679688 L 187.5 59.035156 L 178.355469 65.679688 L 181.847656 54.929688 L 172.703125 48.285156 L 184.007812 48.285156 L 187.5 37.535156 " fill-opacity="1" fill-rule="nonzero"/></svg>